Coordinates
version=1
nRows=9
nColumns=36
inDegrees=yes

Units are S.I. units (second, meters, Newtons, ...)
If the header above contains a line with 'inDegrees', this indicates whether rotational values are in degrees (yes) or radians (no).

endheader
time	pelvis_tilt	pelvis_list	pelvis_rotation	pelvis_tx	pelvis_ty	pelvis_tz	hip_flexion_r	hip_adduction_r	hip_rotation_r	knee_angle_r	knee_angle_r_beta	ankle_angle_r	subtalar_angle_r	mtp_angle_r	hip_flexion_l	hip_adduction_l	hip_rotation_l	knee_angle_l	knee_angle_l_beta	ankle_angle_l	subtalar_angle_l	mtp_angle_l	lumbar_extension	lumbar_bending	lumbar_rotation	arm_flex_r	arm_add_r	arm_rot_r	elbow_flex_r	pro_sup_r	arm_flex_l	arm_add_l	arm_rot_l	elbow_flex_l	pro_sup_l
      0.42000000	     -3.46377055	     -4.94464908	     -0.21049743	      0.31299196	      0.93485061	     -0.24009178	     -0.26580906	      9.45572977	      0.52685843	      2.72133723	      0.04749629	      6.14971771	    -10.45428120	     -6.78342405	     28.08756246	     -1.18959604	     10.61832997	     57.68925931	      1.00686752	     -3.70954590	    -25.28657765	     -6.78342405	    -12.05315164	     21.63143647	     -2.93484269	     -3.17315482	    -10.13395962	    -13.84885732	     54.03075096	    100.56197075	     -7.34639050	     -2.14745220	     -9.88640170	     56.64584830	     98.57566045
      0.43000000	     -3.43111251	     -4.59506626	     -0.21162098	      0.32102270	      0.93487421	     -0.23888374	     -0.86812595	      9.18036382	      0.56801380	      2.68619297	      0.04688291	      6.40005218	    -10.57121298	     -6.78996207	     28.79452958	     -0.93396236	     10.52260927	     55.30639562	      0.96527870	     -3.27978398	    -25.49036133	     -6.78996207	    -11.95645254	     20.83074201	     -2.60368071	     -3.13746257	    -10.04790612	    -13.50031289	     53.70015036	    100.54567312	     -7.41325774	     -2.13535568	    -10.14381314	     56.42974660	     98.48743396
      0.44000000	     -3.31378843	     -4.37002497	     -0.23306233	      0.32917093	      0.93486868	     -0.23761160	     -1.58119237	      9.04607379	      0.66517680	      2.65524405	      0.04634275	      6.71447510	    -10.68533612	     -6.79563288	     29.32590712	     -0.87654597	     10.33641468	     52.72204872	      0.92017334	     -2.94916778	    -25.59596753	     -6.79563288	    -11.96004669	     20.17125182	     -2.28190428	     -3.02025124	    -10.00659405	    -13.13429758	     53.25854368	    100.53293733	     -7.49480115	     -2.10964960	    -10.37695177	     56.11043192	     98.40316630
      0.45000000	     -2.92289441	     -4.04294432	     -0.33908182	      0.33738631	      0.93515817	     -0.23615288	     -2.65500708	      8.79516667	      0.89921069	      2.53170364	      0.04418656	      7.25850770	    -10.66800593	     -6.81249967	     29.39944116	     -0.80789060	      9.92776210	     49.85944374	      0.87021146	     -2.78137170	    -25.71995204	     -6.81249967	    -12.30801272	     19.31289156	     -2.05128492	     -2.54254647	    -10.01353004	    -12.18528508	     52.17945518	    100.51142906	     -7.51321956	     -2.14195554	    -10.80424979	     55.58101416	     98.24329100
      0.46000000	     -2.79681383	     -3.80930867	     -0.36456458	      0.34563365	      0.93485621	     -0.23487207	     -3.40714511	      8.62825133	      0.88366372	      2.47623019	      0.04321837	      7.78201695	    -10.38604790	     -6.86005775	     29.73486986	     -0.76481026	      9.68499396	     46.91931124	      0.81889646	     -2.68079185	    -25.62561143	     -6.86005775	    -12.32238134	     18.58054208	     -2.10384709	     -2.06469538	    -10.10678387	    -10.92975812	     51.22560789	    100.47696668	     -7.84276029	     -2.08096678	    -11.49248393	     55.47875774	     98.08240949
      0.47000000	     -2.80685598	     -3.69663352	     -0.38758368	      0.35389487	      0.93418817	     -0.23359913	     -4.01719058	      8.59945734	      0.98352416	      2.41638569	      0.04217389	      8.02318763	    -10.41422399	     -6.86523510	     30.17065457	     -0.83346023	      9.55568847	     43.92787557	      0.76668606	     -2.54184631	    -25.23271852	     -6.86523510	    -12.21355172	     18.02166151	     -1.76247118	     -2.06413250	    -10.03709288	    -10.75029818	     50.95475911	    100.46683331	     -7.96965715	     -2.09459661	    -11.65881970	     55.12823681	     98.03532795
      0.48000000	     -2.56235734	     -3.45858753	     -0.47840463	      0.36229570	      0.93377346	     -0.23221325	     -4.96199170	      8.41556433	      1.08594216	      2.27154154	      0.03964588	      8.47897828	    -10.36602673	     -6.87322170	     30.18669314	     -0.86214143	      9.17907106	     40.74287385	      0.71109730	     -2.46140927	    -24.47505931	     -6.87322170	    -12.39401973	     17.25771382	     -1.39492459	     -1.90953738	     -9.96714573	    -10.37993439	     50.32114147	    100.44498504	     -7.92936350	     -2.14643239	    -11.88997469	     54.44868793	     97.96601559
      0.49000000	     -2.29642979	     -3.33966671	     -0.53877005	      0.37081405	      0.93316551	     -0.23087701	     -5.91322150	      8.34546154	      0.95391791	      2.18058958	      0.03805847	      9.30561033	     -9.57660713	     -6.90995514	     30.14789835	     -1.01441601	      8.86259679	     37.60271604	      0.65629120	     -1.83918893	    -22.87841548	     -6.90995514	    -12.58924270	     16.61909920	     -1.30595971	     -1.47254944	    -10.02862120	     -9.29253949	     49.31472907	    100.37684068	     -8.12042311	     -2.16931890	    -12.27823691	     53.91563800	     97.99981325
      0.50000000	     -2.29721663	     -3.27408212	     -0.59355111	      0.37930390	      0.93206496	     -0.22957932	     -6.54978144	      8.35266359	      0.97149228	      2.13105244	      0.03719388	      9.66636326	     -9.52891966	     -6.91701032	     30.34059766	     -1.15483231	      8.78247492	     34.41396162	      0.60063694	     -1.92133655	    -21.73983587	     -6.91701032	    -12.49370959	     16.05230557	     -0.97209954	     -1.47259123	     -9.95679370	     -9.08724545	     49.02665581	    100.31803433	     -8.23125868	     -2.17290131	    -12.53754646	     53.41094524	     97.91731276
